<?xml version="1.0" standalone="no"?>
<svg viewBox="0 0 200 200" xmlns="http://www.w3.org/2000/svg">
  <path fill="#FF0066" d="M30.1,-49.6C42.8,-44.9,59.5,-44.4,66.2,-36.8C73,-29.3,69.9,-14.6,69.7,-0.1C69.5,14.4,72.2,28.8,69.1,42.8C66,56.8,57.2,70.3,44.7,77.3C32.3,84.3,16.1,84.8,0.4,84.2C-15.4,83.5,-30.7,81.6,-42.8,74.4C-54.8,67.1,-63.5,54.4,-64.6,41.1C-65.6,27.8,-58.9,13.9,-54.8,2.4C-50.7,-9.2,-49.1,-18.3,-46.5,-28.9C-44,-39.5,-40.4,-51.6,-32.4,-59C-24.5,-66.5,-12.3,-69.2,-1.8,-66.2C8.7,-63.2,17.5,-54.3,30.1,-49.6Z" transform="translate(100 100)" />
</svg>
